<svg xmlns="http://www.w3.org/2000/svg" width="106" height="37" fill="none"><path fill="#FF70D9" d="M90.804 5.389c-2.907 0-5.749.746-8.166 2.146-2.417 1.4-4.301 3.388-5.414 5.716-1.112 2.327-1.404 4.888-.837 7.359.567 2.47 1.967 4.74 4.023 6.521 2.055 1.782 4.674 2.995 7.526 3.486 2.85.492 5.805.24 8.492-.724 2.685-.964 4.98-2.597 6.595-4.691 1.616-2.095 2.478-4.557 2.478-7.077-.005-3.376-1.554-6.613-4.309-9.001-2.755-2.388-6.491-3.731-10.388-3.735Zm0 20.57c-1.788 0-3.535-.459-5.022-1.32-1.487-.86-2.646-2.084-3.33-3.515a6.869 6.869 0 0 1-.515-4.526c.348-1.52 1.21-2.916 2.474-4.011 1.264-1.096 2.875-1.842 4.628-2.145a10.335 10.335 0 0 1 5.223.446c1.652.593 3.064 1.597 4.058 2.885.992 1.289 1.523 2.803 1.523 4.352-.004 2.077-.957 4.068-2.652 5.536-1.694 1.468-3.99 2.295-6.387 2.298ZM57.157 5.39c-2.907 0-5.749.747-8.166 2.146-2.417 1.4-4.3 3.389-5.413 5.716-1.113 2.328-1.403 4.889-.836 7.36.567 2.47 1.967 4.74 4.022 6.52 2.055 1.782 4.674 2.995 7.525 3.487 2.852.491 5.807.239 8.492-.725 2.686-.964 4.982-2.597 6.597-4.691 1.615-2.095 2.477-4.557 2.477-7.077-.005-3.376-1.555-6.614-4.31-9.001-2.756-2.388-6.491-3.731-10.388-3.735Zm0 20.57c-1.666.001-3.3-.397-4.72-1.15-1.422-.753-2.575-1.832-3.334-3.117-.758-1.286-1.092-2.727-.964-4.167.128-1.439.712-2.82 1.688-3.99.976-1.17 2.306-2.083 3.843-2.639a10.327 10.327 0 0 1 4.868-.512c1.646.222 3.19.833 4.46 1.766 1.27.934 2.22 2.153 2.74 3.524h-8.581v4.903h8.581c-.597 1.564-1.747 2.926-3.287 3.892-1.54.966-3.393 1.488-5.294 1.49Z"/><path stroke="#FF70D9" stroke-linecap="square" stroke-linejoin="round" stroke-width="1.5" d="M33.177 28.98c-.662-.886-1.641-1.567-3.063-1.345-3.285.514-1.54-2.053-3.9-1.026-1.89.821-3.252 3.148-3.697 4.21-.137-.651-.657-2.075-1.642-2.568-1.233-.616-1.643.411-2.362-.616-.719-1.026-.719-2.464-1.335-3.901-.616-1.437 2.054-3.593 3.697-2.772 1.642.821 2.669.308 3.49 1.54.822 1.232 1.848 2.772 1.848-1.54 0-4.312 2.053-6.263 2.977-6.16.924.103 3.8-.924 3.286-1.95-.514-1.027-3.285-1.54-3.285-2.465 0-.924 1.232-2.874 0-3.798-1.232-.924-4.313-2.772-6.674-2.567-2.361.206-3.089 1.13-3.089 1.951 0 .822 3.09 2.362 1.447 3.388-1.643 1.026-6.982 2.668-6.982 1.026 0-1.642-.308-5.132.719-5.132s1.335-2.567 1.95-2.464c.616.102 3.183-1.027 4.313-.514.346.158 1.483-.138 2.764-.672m9.538 27.375a17.475 17.475 0 0 0 3.431-10.426c0-8.109-5.498-14.933-12.969-16.95m9.538 27.376c-3.197 4.324-8.332 7.127-14.123 7.127-1.03 0-2.04-.088-3.023-.259m0 0c.133-.764.307-1.395.532-1.745.924-1.437 4.004-.41 4.312-1.129.308-.719-1.027-1.54-2.362-2.156-1.335-.616-3.593-1.232-3.901-4.21-.308-2.977-1.745-2.463-2.053-2.874-.308-.41-3.902-1.54-5.032-3.593-1.13-2.054 0-5.544 0-6.468 0-.653-2.832-1.355-4.742-1.721M16.03 35.848c-8.254-1.433-14.53-8.63-14.53-17.294 0-2.336.456-4.564 1.284-6.602m0 0C5.393 5.529 11.695 1 19.055 1c1.586 0 3.123.21 4.584.605"/></svg>